<svg bgcolor="lightsteelblue">
   <defs>
      <symbol id="knob">
         <g stroke="blue">
            <line transform="rotate(-150)" x1="0" y1="-22" x2="0" y2="-26"/>
            <line transform="rotate(-120)" x1="0" y1="-22" x2="0" y2="-26"/>
            <line transform="rotate(-90)" x1="0" y1="-22" x2="0" y2="-26"/>
            <line transform="rotate(-60)" x1="0" y1="-22" x2="0" y2="-26"/>
            <line transform="rotate(-30)" x1="0" y1="-22" x2="0" y2="-26"/>
            <line transform="rotate(0)" x1="0" y1="-22" x2="0" y2="-26"/>
            <line transform="rotate(30)" x1="0" y1="-22" x2="0" y2="-26"/>
            <line transform="rotate(60)" x1="0" y1="-22" x2="0" y2="-26"/>
            <line transform="rotate(90)" x1="0" y1="-22" x2="0" y2="-26"/>
            <line transform="rotate(120)" x1="0" y1="-22" x2="0" y2="-26"/>
            <line transform="rotate(150)" x1="0" y1="-22" x2="0" y2="-26"/>
	      </g>
         <circle stroke="black" fill="lightgrey" cx="0" cy="0" r="18"/>
         <g fill="black">
            <animateTransform attributeName="transform" type="rotate" from="-150" to="150" begin="0" end="127"
                              binding="."/>
            <rect transform="rotate(0)" x="-3" y="-18" width="6" height="4"/>
            <rect transform="rotate(45)" x="-3" y="-18" width="6" height="4"/>
            <rect transform="rotate(90)" x="-3" y="-18" width="6" height="4"/>
            <rect transform="rotate(135)" x="-3" y="-18" width="6" height="4"/>
            <rect transform="rotate(180)" x="-3" y="-18" width="6" height="4"/>
            <rect transform="rotate(225)" x="-3" y="-18" width="6" height="4"/>
            <rect transform="rotate(270)" x="-3" y="-18" width="6" height="4"/>
            <rect transform="rotate(315)" x="-3" y="-18" width="6" height="4"/>
         </g>
         <circle stroke="black" fill="steelblue" cx="0" cy="0" r="16"/>
         <g>
            <animateTransform attributeName="transform" type="rotate" from="-150" to="150" begin="0" end="127"
                              binding="."/>
            <line stroke-width="3" stroke="red" x1="0" y1="0" x2="0" y2="-14"/>
         </g>
      </symbol>
      <symbol id="knobsmall">
         <g stroke="blue">
            <line transform="rotate(-150)" x1="0" y1="-11" x2="0" y2="-12"/>
            <line transform="rotate(-120)" x1="0" y1="-11" x2="0" y2="-12"/>
            <line transform="rotate(-90)" x1="0" y1="-11" x2="0" y2="-12"/>
            <line transform="rotate(-60)" x1="0" y1="-11" x2="0" y2="-12"/>
            <line transform="rotate(-30)" x1="0" y1="-11" x2="0" y2="-12"/>
            <line transform="rotate(0)" x1="0" y1="-11" x2="0" y2="-12"/>
            <line transform="rotate(30)" x1="0" y1="-11" x2="0" y2="-12"/>
            <line transform="rotate(60)" x1="0" y1="-11" x2="0" y2="-12"/>
            <line transform="rotate(90)" x1="0" y1="-11" x2="0" y2="-12"/>
            <line transform="rotate(120)" x1="0" y1="-11" x2="0" y2="-12"/>
            <line transform="rotate(150)" x1="0" y1="-11" x2="0" y2="-12"/>
	      </g>
         <circle stroke="black" fill="lightgrey" cx="0" cy="0" r="10"/>
         <g fill="black">
            <animateTransform attributeName="transform" type="rotate" from="-150" to="150" begin="0" end="127"
                              binding="."/>
            <rect transform="rotate(0)" x="-3" y="-10" width="3" height="2"/>
            <rect transform="rotate(45)" x="-3" y="-10" width="3" height="2"/>
            <rect transform="rotate(90)" x="-3" y="-10" width="3" height="2"/>
            <rect transform="rotate(135)" x="-3" y="-10" width="3" height="2"/>
            <rect transform="rotate(180)" x="-3" y="-10" width="3" height="2"/>
            <rect transform="rotate(225)" x="-3" y="-10" width="3" height="2"/>
            <rect transform="rotate(270)" x="-3" y="-10" width="3" height="2"/>
            <rect transform="rotate(315)" x="-3" y="-10" width="3" height="2"/>
         </g>
         <circle stroke="black" fill="steelblue" cx="0" cy="0" r="8"/>
         <g>
            <animateTransform attributeName="transform" type="rotate" from="-150" to="150" begin="0" end="127"
                              binding="."/>
            <line stroke-width="3" stroke="red" x1="0" y1="0" x2="0" y2="-6"/>
         </g>
      </symbol>
	  <symbol id="vumeter">
              <rect stroke="none" fill="darkgreen" x="0" y="80" width="8" height="120">
              </rect>
              <rect stroke="none" fill="lime" x="0" y="200" width="8" height="0">
                 <animate calcMode="discrete" attributeName="height" from="0" to="-120" begin="0" end="12"
                          binding="." fill="freeze"/>
              </rect>
              <rect stroke="none" fill="darkgoldenrod" x="0" y="20" width="8" height="60">
              </rect>
              <rect stroke="none" fill="yellow" x="0" y="80" width="8" height="0">
                 <animate calcMode="discrete" attributeName="height" from="0" to="-60" begin="12" end="18"
                          binding="." fill="freeze"/>
              </rect>
              <rect stroke="none" fill="darkred" x="0" y="0" width="8" height="20">
              </rect>
              <rect stroke="none" fill="red" x="0" y="20" width="8" height="0">
                 <animate calcMode="discrete" attributeName="height" from="0" to="-20" begin="18" end="20"
                          binding="." fill="freeze"/>
              </rect>
              
              <rect stroke="black" fill="none" x="0" y="0" width="8" height="200"/>
              <line stroke="black" x1="0" y1="10" x2="8" y2="10"/>
              <line stroke="black" x1="0" y1="20" x2="8" y2="20"/>
              <line stroke="black" x1="0" y1="30" x2="8" y2="30"/>
              <line stroke="black" x1="0" y1="40" x2="8" y2="40"/>
              <line stroke="black" x1="0" y1="50" x2="8" y2="50"/>
              <line stroke="black" x1="0" y1="60" x2="8" y2="60"/>
              <line stroke="black" x1="0" y1="70" x2="8" y2="70"/>
              <line stroke="black" x1="0" y1="80" x2="8" y2="80"/>
              <line stroke="black" x1="0" y1="90" x2="8" y2="90"/>
              <line stroke="black" x1="0" y1="100" x2="8" y2="100"/>
              <line stroke="black" x1="0" y1="110" x2="8" y2="110"/>
              <line stroke="black" x1="0" y1="120" x2="8" y2="120"/>
              <line stroke="black" x1="0" y1="130" x2="8" y2="130"/>
              <line stroke="black" x1="0" y1="140" x2="8" y2="140"/>
              <line stroke="black" x1="0" y1="150" x2="8" y2="150"/>
              <line stroke="black" x1="0" y1="160" x2="8" y2="160"/>
              <line stroke="black" x1="0" y1="170" x2="8" y2="170"/>
              <line stroke="black" x1="0" y1="180" x2="8" y2="180"/>
              <line stroke="black" x1="0" y1="190" x2="8" y2="190"/>  
	  </symbol>

	  <symbol id="fader">
             <rect stroke="none" fill="grey" x="4" y="0" width="4" height="200"/>
	        <g>
                   <animateTransform attributeName="transform" type="translate" from="0,200" to="0,0" 
                                     begin="0" end="127" binding="."/>
                   <rect stroke="none" fill="brown" x="1" y="-10" width="10" height="20"/>
                   <polyline stroke="red" fill="none" points="1,9 1,-10 10,-10"/>
                   <polyline stroke="maroon" fill="none" points="10,-9 10,10 2,10"/>
                   <rect stroke="black" x="1" y="-1" width="10" height="2"/>
                   <line stroke="white" x1="2" y1="0" x2="10" y2="0"/>
                </g>

	        <g stroke="darkblue" fill="darkblue">
                   <text font-size="9" font-family="Arial" x="15" y="3">+5</text>
                   <line x1="15" y1="10" x2="18" y2="10"/>
		   <line x1="15" y1="20" x2="25" y2="20"/>
		   <line x1="15" y1="30" x2="18" y2="30"/>
                   <text font-size="9" font-family="Arial" x="15" y="43">0</text>
		   <line x1="15" y1="50" x2="18" y2="50"/>
		   <line x1="15" y1="60" x2="25" y2="60"/>
		   <line x1="15" y1="70" x2="18" y2="70"/>
                   <text font-size="9" font-family="Arial" x="15" y="83">-5</text>
		   <line x1="15" y1="90" x2="18" y2="90"/>
		   <line x1="15" y1="100" x2="25" y2="100"/>
		   <line x1="15" y1="110" x2="18" y2="110"/>
                   <text font-size="9" font-family="Arial" x="15" y="123">-12</text>
		   <line x1="15" y1="130" x2="18" y2="130"/>
		   <line x1="15" y1="140" x2="25" y2="140"/>
		   <line x1="15" y1="150" x2="18" y2="150"/>
                   <text font-size="9" font-family="Arial" x="15" y="163">-24</text>
		   <line x1="15" y1="170" x2="18" y2="170"/>
                   <text font-size="9" font-family="Arial" x="15" y="183">-48</text>
		   <line x1="15" y1="190" x2="18" y2="190"/>
                   <text font-size="9" font-family="Arial" x="15" y="203">-oo</text>
		</g>
	  </symbol>

<!--
          <symbol id="smallpushbutton">
             <rect fill="lightgrey" stroke="none" x="0" y="0" width="20" height="20">
                <animateColor attributeName="fill" calcMode="discrete" from="lightgrey" to="gold" begin="0" dur="1" binding="."/>
             </rect>
             <g stroke="white">
                <animateColor attributeName="stroke" calcMode="discrete" from="white" to="grey" begin="0" dur="1" binding="."/>             
                <line x1="0" y1="0" x2="19" y2="0"/>
                <line x1="0" y1="0" x2="0" y2="19"/>
             </g>
             <g stroke="grey">
                <animateColor attributeName="stroke" calcMode="discrete" from="grey" to="white" begin="0" dur="1" binding="."/>             
   	        <line x1="20" y1="0" x2="20" y2="20"/>
                <line x1="0" y1="20" x2="20" y2="20"/>
             </g>
	  </symbol>
-->          
          <symbol id="smallpushbutton">
             <rect fill="lightgrey" stroke="none" x="0" y="0" width="14" height="20">
                <animateColor attributeName="fill" calcMode="discrete" from="lightgrey" to="gold" begin="0" dur="1" binding="."/>
             </rect>
             <g stroke="white">
                <animateColor attributeName="stroke" calcMode="discrete" from="white" to="grey" begin="0" dur="1" binding="."/>             
                <line x1="0" y1="0" x2="13" y2="0"/>
                <line x1="0" y1="0" x2="0" y2="19"/>
             </g>
             <g stroke="grey">
                <animateColor attributeName="stroke" calcMode="discrete" from="grey" to="white" begin="0" dur="1" binding="."/>             
   	        <line x1="14" y1="0" x2="14" y2="20"/>
                <line x1="0" y1="20" x2="14" y2="20"/>
             </g>
	  </symbol>
          <symbol id="smallpushred">
             <rect fill="lightgrey" stroke="none" x="0" y="0" width="14" height="20">
                <animateColor attributeName="fill" calcMode="discrete" from="lightgrey" to="red" begin="0" dur="1" binding="."/>
             </rect>
             <g stroke="white">
                <animateColor attributeName="stroke" calcMode="discrete" from="white" to="grey" begin="0" dur="1" binding="."/>             
                <line x1="0" y1="0" x2="13" y2="0"/>
                <line x1="0" y1="0" x2="0" y2="19"/>
             </g>
             <g stroke="grey">
                <animateColor attributeName="stroke" calcMode="discrete" from="grey" to="white" begin="0" dur="1" binding="."/>             
   	        <line x1="14" y1="0" x2="14" y2="20"/>
                <line x1="0" y1="20" x2="14" y2="20"/>
             </g>
	  </symbol>
	  <symbol id="largepushbutton">
             <rect fill="lightgrey" stroke="none" x="0" y="0" width="46" height="20">
                <animateColor attributeName="fill" calcMode="discrete" from="lightgrey" to="red" begin="0" dur="1" binding="."/>
             </rect>
             <g stroke="white">
                <animateColor attributeName="stroke" calcMode="discrete" from="white" to="grey" begin="0" dur="1" binding="."/>                          
                <line x1="0" y1="0" x2="45" y2="0"/>
                <line x1="0" y1="0" x2="0" y2="19"/>
             </g>
             <g stroke="grey">
                <animateColor attributeName="stroke" calcMode="discrete" from="grey" to="white" begin="0" dur="1" binding="."/>                          
   	        <line x1="46" y1="0" x2="46" y2="20"/>
                <line x1="0" y1="20" x2="46" y2="20"/>
             </g>
	  </symbol>
	  <symbol id="activepushbutton">
             <rect fill="lightgrey" stroke="none" x="0" y="0" width="46" height="20">
                <animateColor attributeName="fill" calcMode="discrete" from="lightgrey" to="red" begin="0" dur="1" binding=".=$i"/>
             </rect>
             <g stroke="white">
                <animateColor attributeName="stroke" calcMode="discrete" from="white" to="grey" begin="0" dur="1" binding=".=$i"/>
                <line x1="0" y1="0" x2="45" y2="0"/>
                <line x1="0" y1="0" x2="0" y2="19"/>
             </g>
             <g stroke="grey">
                <animateColor attributeName="stroke" calcMode="discrete" from="grey" to="white" begin="0" dur="1" binding=".=$i"/>
   	        <line x1="46" y1="0" x2="46" y2="20"/>
                <line x1="0" y1="20" x2="46" y2="20"/>
             </g>
	   </symbol>

      <symbol id="channel">
         <rect stroke="none" fill="lightsteelblue" x="-2" y="0" width="60" height="730"/>
         <polyline stroke="lavender" fill="none" points="-2,728 -2,0 57,0"/>
         <polyline stroke="steelblue" fill="none" points="-1,729 58,729 58,-1"/>

         <g>
            <animateInputSlider binding="@stereo" min="0" max="127"/>
            <text dominant-baseline="middle" font-size="12" font-family="Arial" x="30" y="15">St</text>
            <use xlink:href="#knobsmall" transform="translate(13,15)" symbolPath="@stereo"/>
         </g>
         <g>
            <animateInputSlider binding="@monitor" min="0" max="127"/>         
            <text text-anchor="end" dominant-baseline="middle" font-size="12" font-family="Arial" x="27" y="40">Mon</text>
            <use xlink:href="#knobsmall" transform="translate(42,40)" symbolPath="@monitor"/>
         </g>
         <g>
            <animateInputSlider binding="@pa1" min="0" max="127"/>
            <text dominant-baseline="middle" font-size="12" font-family="Arial" x="30" y="65">PA1</text>                                    
            <use xlink:href="#knobsmall" transform="translate(13,65)" symbolPath="@pa1"/>
         </g>
         <g>
            <animateInputSlider binding="@pa2" min="0" max="127"/>         
            <text text-anchor="end" dominant-baseline="middle" font-size="12" font-family="Arial" x="27" y="90">PA2</text>            
            <use xlink:href="#knobsmall" transform="translate(42,90)" symbolPath="@pa2"/>
         </g>
         <line stroke="steelblue" x1="2" y1="105" x2="54" y2="105"/>         
         <g>
            <animateInputSlider binding="@aux1" min="0" max="127"/>
            <text dominant-baseline="middle" font-size="12" font-family="Arial" x="30" y="120">Aux1</text>                                    
            <use xlink:href="#knobsmall" transform="translate(13,120)" symbolPath="@aux1"/>
         </g>
         <g>
            <animateInputSlider binding="@aux2" min="0" max="127"/>         
            <text text-anchor="end" dominant-baseline="middle" font-size="12" font-family="Arial" x="27" y="145">Aux2</text>            
            <use xlink:href="#knobsmall" transform="translate(42,145)" symbolPath="@aux2"/>
         </g>
<!--
         <g>
            <animateInputSlider binding="@monitor" min="0" max="127"/>
            <text font-size="12" font-family="Arial" x="5" y="20">Monitor</text>
            <use xlink:href="#knob" transform="translate(28,50)" symbolPath="@monitor"/>
         </g>
         <g>
            <animateInputSlider binding="@reverb" min="0" max="127"/>         
            <text font-size="12" font-family="Arial" x="5" y="100">Reverb</text>
            <use xlink:href="#knob" transform="translate(28,130)" symbolPath="@reverb"/>
         </g>
-->         
         <g transform="translate(0,35)">         
         <line stroke="steelblue" x1="2" y1="125" x2="54" y2="125"/>
         <g>
            <animateInputSlider binding="@treble" min="0" max="127"/>         
            <text font-size="12" font-family="Arial" x="5" y="140">Treble</text>
            <use xlink:href="#knob" transform="translate(28,170)" symbolPath="@treble"/>
         </g>
         <g>
            <animateInputSlider binding="@bass" min="0" max="127"/>         
            <text font-size="12" font-family="Arial" x="5" y="220">Bass</text>
            <use xlink:href="#knob" transform="translate(28,250)" symbolPath="@bass"/>            
         </g>
         <line stroke="steelblue" x1="2" y1="280" x2="54" y2="280"/>
         <g>
            <animateInputSlider binding="@level" min="0" max="127"/>
            <use xlink:href="#fader" transform="translate(3,290)" symbolPath="@level"/>
         </g>
         <use xlink:href="#vumeter" transform="translate(36,290)" symbolPath="@peak"/>

         <g>
            <animateInputSlider binding="@pan" min="0" max="127"/>         
            <text font-size="12" font-family="Arial" x="5" y="510">Pan</text>
            <use xlink:href="#knob" transform="translate(28,540)" symbolPath="@pan"/>
         </g>

            <g transform="translate(0,-20)">
            <g>
               <animateInputEvent binding="@mute=INVERT" eventType="click"/>
               <use xlink:href="#smallpushbutton" transform="translate(5,600)" symbolPath="@mute"/>
               <text font-size="12" font-family="Arial" text-anchor="middle" dominant-baseline="central" x="13" y="610">M</text>
            </g>   
            <g>
               <animateInputEvent binding="@solo=INVERT" eventType="click"/>                        
               <use xlink:href="#smallpushbutton" transform="translate(21,600)" symbolPath="@solo"/>
               <text font-size="12" font-family="Arial" text-anchor="middle" dominant-baseline="central" x="29" y="610">S</text>
            </g>               
            <g>
               <animateInputEvent binding="/carbon/sequencer/xmidi/track[$i]/@recEnable=INVERT" eventType="click"/>
               <use xlink:href="#smallpushred" transform="translate(37,600)" symbolPath="/carbon/sequencer/xmidi/track[$i]/@recEnable"/>
               <text font-size="12" font-family="Arial" text-anchor="middle" dominant-baseline="central" x="45" y="610">R</text>
            </g>               
            <g tooltiptext="channel name">
               <bind attributeName="tooltiptext" binding="/carbon/sequencer/xmidi/track[$i]/@trackName"/>
               <animateInputEvent binding="/carbon/mixer/@active=$i" eventType="click"/>  
               <use xlink:href="#activepushbutton" transform="translate(5,623)" symbolPath="/carbon/mixer/@active"/>
               <text font-size="12" font-family="Arial" text-anchor="middle" dominant-baseline="central" x="28" y="633">Active</text>
            </g>
            <g>
               <animateInputEvent binding="/carbon/mixer/@activeB=$i" eventType="click"/>  
               <use xlink:href="#activepushbutton" transform="translate(5,653)" symbolPath="/carbon/mixer/@activeB"/>
               <text font-size="12" font-family="Arial" text-anchor="middle" dominant-baseline="central" x="28" y="663">Active</text>
            </g>
            <text font-size="12" font-family="Arial" text-anchor="middle" dominant-baseline="central" x="28" y="685">
               <bind attributeName="text" binding="/carbon/sequencer/xmidi/track[$i]/@trackName"/>
            </text>
         </g>
         </g>
       </symbol>
   </defs>

   <array elements="16" spacingX="62" xlink:href="#channel" symbolPath="/carbon/mixer/channel[$i]"/>
</svg>
